# xmcd
#
# Track frame offsets:
#	150
#	10401
#	24922
#	45817
#	60896
#	77054
#	93797
#	116629
#	137496
#	154943
#	178356
#	195825
#
# Disc length: 3481 seconds
#
# Revision: 0
# Processed by: cddbd v1.5.2PL0 Copyright (c) Steve Scherf et al.
# Submitted via: EasyCDDAExtractor 16.0.6.1
#
DISCID=830d970c
DTITLE=Χαρούλης Γιάννης - Χειμωνανθός-Γ. Χαρούλης
DYEAR=2006
DGENRE=Έντεχνη
TTITLE0=Χαρούλης Γιάννης - Ένα γύρο το φεγγάρι [Δανάη Παναγιωτοπούλου]
TTITLE1=Χαρούλης Γιάννης - Στις χαραυγές ξεχνιέμαι [Θανάσης Παπακωνσταντίνου]
TTITLE2=Χαρούλης Γιάννης - Σύννεφα του γιαλού [Γ. Χαρούλης-Κώστας Σπηλιωτάκος]
TTITLE3=Γαρεφαλάκης Γιώργος-Χαρούλης Γιάννης - Δύση και Ανατολή [Γ. Χαρούλης-Γ
TTITLE3=ιώργος Γαρεφαλάκης]
TTITLE4=Χαρούλης Γιάννης - Σαν τα ρολόγια [Διονύσης Τσακνής-Μ. Ελευθερίου]
TTITLE5=Χαρούλης Γιάννης - Χειμωνανθός [Γιώργος Καζαντζής-Ελένη Φωτάκη]
TTITLE6=Χαρούλης Γιάννης - Τι συμβαίνει εδώ - [Κώστας Παρίσης-Μάνος Ξυδούς]
TTITLE7=Χαρούλης Γιάννης - Το όνειρο του πολεμιστή [Δημήτρης Υφαντής]
TTITLE8=Χαρούλης Γιάννης - Βρέχει [Λάμπης Κουντουρόγιαννης-Ματίνα Κουντουρόγια
TTITLE8=ννη]
TTITLE9=Χαρούλης Γιάννης - Του πρωϊνού [Γιάννης Χαρούλης]
TTITLE10=Χαρούλης Γιάννης - Βοσκαρουδάκι αμούστακο [Κώστας Μουντάκης]
TTITLE11=Χαρούλης Γιάννης - Εκατόφυλλα [Μάνος Ξυδούς/Κώστας Παρίσης-Ελένη Φωτά
TTITLE11=κη]
EXTD=
EXTT0=
EXTT1=
EXTT2=
EXTT3=
EXTT4=
EXTT5=
EXTT6=
EXTT7=
EXTT8=
EXTT9=
EXTT10=
EXTT11=
PLAYORDER=
